HIERARCHY
ROOT Storm:Solving:Root
{
	OFFSET 0.000000 0.000000 0.000000
	CHANNELS 6 Xposition Yposition Zposition Xrotation Yrotation Zrotation
	JOINT Storm:Solving:L_Clav
	{
		OFFSET 0.000000 0.000000 0.000000
		CHANNELS 6 Xposition Yposition Zposition Xrotation Yrotation Zrotation
		JOINT Storm:Solving:L_Scapula_Joint
		{
			OFFSET 4.000000 0.000000 0.000000
			CHANNELS 6 Xposition Yposition Zposition Xrotation Yrotation Zrotation
			JOINT Storm:Solving:L_Shoulder_Joint
			{
				OFFSET 4.002680 -11.084213 10.770061
				CHANNELS 6 Xposition Yposition Zposition Xrotation Yrotation Zrotation
				JOINT Storm:Solving:L_Elbow_Joint
				{
					OFFSET 2.147804 -15.161020 -8.035202
					CHANNELS 6 Xposition Yposition Zposition Xrotation Yrotation Zrotation
					JOINT Storm:Solving:L_Wrist_Joint
					{
						OFFSET -2.240269 -20.029085 -9.040068
						CHANNELS 6 Xposition Yposition Zposition Xrotation Yrotation Zrotation
						JOINT Storm:Solving:L_Paw_Joint
						{
							OFFSET 0.706234 -5.721245 1.834930
							CHANNELS 6 Xposition Yposition Zposition Xrotation Yrotation Zrotation
							End Site
							{
								OFFSET 1.343818 -3.510090 4.244948
							}
						}
					}
				}
			}
		}
	}
	JOINT Storm:Solving:R_Clav
	{
		OFFSET 0.000000 0.000000 0.000000
		CHANNELS 6 Xposition Yposition Zposition Xrotation Yrotation Zrotation
		JOINT Storm:Solving:R_Scapula_Joint
		{
			OFFSET -4.000000 0.000000 0.000001
			CHANNELS 6 Xposition Yposition Zposition Xrotation Yrotation Zrotation
			JOINT Storm:Solving:NewBone_3
			{
				OFFSET -4.614829 -11.686035 9.889533
				CHANNELS 6 Xposition Yposition Zposition Xrotation Yrotation Zrotation
				JOINT Storm:Solving:R_Elbow_Joint
				{
					OFFSET -0.160743 -16.404388 -5.491836
					CHANNELS 6 Xposition Yposition Zposition Xrotation Yrotation Zrotation
					JOINT Storm:Solving:R_Wrist_Joint
					{
						OFFSET 2.412016 -21.935680 1.190901
						CHANNELS 6 Xposition Yposition Zposition Xrotation Yrotation Zrotation
						JOINT Storm:Solving:R_Paw_Joint
						{
							OFFSET -0.535018 -3.351765 3.806499
							CHANNELS 6 Xposition Yposition Zposition Xrotation Yrotation Zrotation
							End Site
							{
								OFFSET -0.877549 -2.975662 5.252174
							}
						}
					}
				}
			}
		}
	}
	JOINT Storm:Solving:Root_To_Spine_Dummy
	{
		OFFSET 0.000000 0.000000 0.000000
		CHANNELS 6 Xposition Yposition Zposition Xrotation Yrotation Zrotation
		JOINT Storm:Solving:Spine1
		{
			OFFSET 0.000000 -0.000000 -3.827275
			CHANNELS 6 Xposition Yposition Zposition Xrotation Yrotation Zrotation
			JOINT Storm:Solving:Spine2
			{
				OFFSET 0.000001 -0.000004 -16.939260
				CHANNELS 6 Xposition Yposition Zposition Xrotation Yrotation Zrotation
				JOINT Storm:Solving:Spine3
				{
					OFFSET 0.000002 -0.000004 -14.393892
					CHANNELS 6 Xposition Yposition Zposition Xrotation Yrotation Zrotation
					JOINT Storm:Solving:Pelvis_Root
					{
						OFFSET 0.000002 -0.000004 -14.393890
						CHANNELS 6 Xposition Yposition Zposition Xrotation Yrotation Zrotation
						JOINT Storm:Solving:L_Pelvis
						{
							OFFSET 0.000000 0.000000 0.000000
							CHANNELS 6 Xposition Yposition Zposition Xrotation Yrotation Zrotation
							JOINT Storm:Solving:LFemur_Joint
							{
								OFFSET 8.318080 -6.780921 -6.728058
								CHANNELS 6 Xposition Yposition Zposition Xrotation Yrotation Zrotation
								JOINT Storm:Solving:LTibia_Joint
								{
									OFFSET 4.762119 -18.232956 12.109562
									CHANNELS 6 Xposition Yposition Zposition Xrotation Yrotation Zrotation
									JOINT Storm:Solving:LAnkle_Joint
									{
										OFFSET 1.748854 -18.426315 -12.690487
										CHANNELS 6 Xposition Yposition Zposition Xrotation Yrotation Zrotation
										JOINT Storm:Solving:LFoot_Joint
										{
											OFFSET 2.893215 -10.324425 3.420891
											CHANNELS 6 Xposition Yposition Zposition Xrotation Yrotation Zrotation
											End Site
											{
												OFFSET 3.317142 -1.153622 6.178677
											}
										}
									}
								}
							}
						}
						JOINT Storm:Solving:R_Pelvis
						{
							OFFSET 0.000000 0.000000 0.000000
							CHANNELS 6 Xposition Yposition Zposition Xrotation Yrotation Zrotation
							JOINT Storm:Solving:RFemur_Joint
							{
								OFFSET -8.082922 -7.104604 -6.553699
								CHANNELS 6 Xposition Yposition Zposition Xrotation Yrotation Zrotation
								JOINT Storm:Solving:RTibia_Joint
								{
									OFFSET -3.034004 -18.950596 11.551201
									CHANNELS 6 Xposition Yposition Zposition Xrotation Yrotation Zrotation
									JOINT Storm:Solving:RAnkle_Joint
									{
										OFFSET 0.163292 -19.936808 -10.210636
										CHANNELS 6 Xposition Yposition Zposition Xrotation Yrotation Zrotation
										JOINT Storm:Solving:RFoot_Joint
										{
											OFFSET -0.793680 -9.967937 0.101715
											CHANNELS 6 Xposition Yposition Zposition Xrotation Yrotation Zrotation
											End Site
											{
												OFFSET -4.434014 -1.490955 4.525612
											}
										}
									}
								}
							}
						}
					}
				}
			}
		}
	}
	JOINT Storm:Solving:Root_To_Neck
	{
		OFFSET 0.000000 0.000000 0.000000
		CHANNELS 6 Xposition Yposition Zposition Xrotation Yrotation Zrotation
		JOINT Storm:Solving:Neck1
		{
			OFFSET 0.000000 4.185544 5.729186
			CHANNELS 6 Xposition Yposition Zposition Xrotation Yrotation Zrotation
			JOINT Storm:Solving:Neck2
			{
				OFFSET 2.125778 5.862308 7.100437
				CHANNELS 6 Xposition Yposition Zposition Xrotation Yrotation Zrotation
				JOINT Storm:Solving:Head
				{
					OFFSET -4.381103 5.689912 1.801980
					CHANNELS 6 Xposition Yposition Zposition Xrotation Yrotation Zrotation
					JOINT Storm:Solving:Head_End
					{
						OFFSET -9.753127 2.579655 15.562060
						CHANNELS 6 Xposition Yposition Zposition Xrotation Yrotation Zrotation
						End Site
						{
							OFFSET -4.085258 17.259081 -5.421284
						}
					}
				}
			}
		}
	}
	JOINT Storm:Solving:R_Clav_1
	{
		OFFSET 0.000000 0.000000 0.000000
		CHANNELS 6 Xposition Yposition Zposition Xrotation Yrotation Zrotation
		End Site
		{
			OFFSET 0.000000 0.010000 -0.000000
		}
	}
}
MOTION
Frames: 5
Frame Time: 0.041667
-0.949244 57.040886 -196.408325 -9.624934 -14.286948 -1.201960 0.000004 -0.000001 -0.000078 1.661403 -0.292834 -9.993055 3.999993 0.000020 0.000019 2.203625 -1.187199 8.095566 4.002684 -11.084216 10.770075 -9.386116 4.300361 -7.155994 2.147817 -15.161000 -8.035187 -20.479287 -10.850213 -2.488829 -2.240230 -20.029127 -9.040034 10.982440 -18.012643 1.489655 0.706222 -5.721214 1.834918 14.049924 0.146351 -4.379828 0.000004 -0.000001 -0.000078 5.363290 -0.409960 -4.358369 -4.000009 0.000004 0.000013 5.391015 0.243121 3.346853 -4.614827 -11.686065 9.889564 2.370227 -0.553415 9.428139 -0.160749 -16.404387 -5.491806 6.874128 0.714471 -0.387945 2.412045 -21.935682 1.190926 2.256883 5.652593 -8.273254 -0.535018 -3.351725 3.806474 -11.642693 -0.876972 -2.689756 0.000004 -0.000001 -0.000078 -0.000002 -0.000001 -0.000000 -0.000001 0.000007 -3.827349 8.403427 -2.698449 1.921417 0.000009 0.000011 -16.939217 7.841114 12.619224 -41.052077 -0.000010 0.000005 -14.393842 3.641391 -25.857220 44.753018 0.000014 -0.000013 -14.394024 -0.549896 8.431269 -12.959455 -0.000022 -0.000009 -0.000008 0.000011 -0.000010 0.000001 8.318086 -6.780933 -6.728073 -7.826517 7.794097 -0.105006 4.762101 -18.232944 12.109530 -7.741085 -1.797519 1.290514 1.748853 -18.426319 -12.690537 -4.103312 -0.473832 2.318585 2.893227 -10.324451 3.420940 16.387798 0.559851 -8.565451 -0.000021 -0.000005 -0.000004 0.000003 0.000001 0.000012 -8.082974 -7.104586 -6.553765 5.195352 6.896076 1.007506 -3.034008 -18.950628 11.551161 8.751036 -0.566508 1.516018 0.163304 -19.936815 -10.210631 -10.393386 0.539218 -1.960063 -0.793683 -9.967960 0.101762 1.318605 -0.077536 1.261651 0.000004 -0.000001 -0.000078 -0.000000 -0.000002 -0.000001 0.000011 4.185564 5.729160 -13.529731 6.343600 0.781749 2.125762 5.862309 7.100431 8.122770 7.338692 -14.514249 -4.381118 5.689941 1.801907 -6.028530 15.477033 2.921861 -9.753154 2.579646 15.562055 -0.000003 0.000005 -0.000009 0.000004 -0.000001 -0.000078 -0.000002 -0.000001 -0.000000 
-0.949244 57.040886 -196.408325 -9.624934 -14.286948 -1.201960 0.000004 -0.000001 -0.000078 1.661403 -0.292834 -9.993055 3.999993 0.000020 0.000019 2.203625 -1.187199 8.095566 4.002684 -11.084216 10.770075 -9.386116 4.300361 -7.155994 2.147817 -15.161000 -8.035187 -20.479287 -10.850213 -2.488829 -2.240230 -20.029127 -9.040034 10.982440 -18.012643 1.489655 0.706222 -5.721214 1.834918 14.049924 0.146351 -4.379828 0.000004 -0.000001 -0.000078 5.363290 -0.409960 -4.358369 -4.000009 0.000004 0.000013 5.391015 0.243121 3.346853 -4.614827 -11.686065 9.889564 2.370227 -0.553415 9.428139 -0.160749 -16.404387 -5.491806 6.874128 0.714471 -0.387945 2.412045 -21.935682 1.190926 2.256883 5.652593 -8.273254 -0.535018 -3.351725 3.806474 -11.642693 -0.876972 -2.689756 0.000004 -0.000001 -0.000078 -0.000002 -0.000001 -0.000000 -0.000001 0.000007 -3.827349 8.403427 -2.698449 1.921417 0.000009 0.000011 -16.939217 7.841114 12.619224 -41.052077 -0.000010 0.000005 -14.393842 3.641391 -25.857220 44.753018 0.000014 -0.000013 -14.394024 -0.549896 8.431269 -12.959455 -0.000022 -0.000009 -0.000008 0.000011 -0.000010 0.000001 8.318086 -6.780933 -6.728073 -7.826517 7.794097 -0.105006 4.762101 -18.232944 12.109530 -7.741085 -1.797519 1.290514 1.748853 -18.426319 -12.690537 -4.103312 -0.473832 2.318585 2.893227 -10.324451 3.420940 16.387798 0.559851 -8.565451 -0.000021 -0.000005 -0.000004 0.000003 0.000001 0.000012 -8.082974 -7.104586 -6.553765 5.195352 6.896076 1.007506 -3.034008 -18.950628 11.551161 8.751036 -0.566508 1.516018 0.163304 -19.936815 -10.210631 -10.393386 0.539218 -1.960063 -0.793683 -9.967960 0.101762 1.318605 -0.077536 1.261651 0.000004 -0.000001 -0.000078 -0.000000 -0.000002 -0.000001 0.000011 4.185564 5.729160 -13.529731 6.343600 0.781749 2.125762 5.862309 7.100431 8.122770 7.338692 -14.514249 -4.381118 5.689941 1.801907 -6.028530 15.477033 2.921861 -9.753154 2.579646 15.562055 -0.000003 0.000005 -0.000009 0.000004 -0.000001 -0.000078 -0.000002 -0.000001 -0.000000 
-0.956545 57.016098 -196.371582 -9.757087 -14.495861 -1.320667 -0.000023 -0.000005 -0.000054 1.603824 -0.284377 -10.052084 3.999990 0.000002 0.000019 2.143996 -1.034900 8.207426 4.002683 -11.084220 10.770061 -9.226894 3.812655 -7.270017 2.147812 -15.161018 -8.035213 -20.345158 -10.457087 -2.319087 -2.240282 -20.029068 -9.040125 11.385270 -17.963249 1.711627 0.706256 -5.721266 1.834982 13.646051 0.157156 -4.254010 -0.000023 -0.000005 -0.000054 5.404696 -0.426398 -4.497591 -4.000003 0.000009 0.000062 5.434433 0.320541 3.445351 -4.614857 -11.686065 9.889527 2.404591 -0.490063 9.548108 -0.160749 -16.404419 -5.491849 6.916114 0.718672 -0.390560 2.412039 -21.935686 1.190945 2.370515 5.725042 -8.305173 -0.534999 -3.351758 3.806451 -11.774894 -0.883753 -2.721159 -0.000023 -0.000005 -0.000054 0.000000 0.000001 0.000000 -0.000008 0.000018 -3.827372 8.544881 -2.627098 1.961543 0.000000 0.000011 -16.939257 7.970097 12.890305 -41.417646 -0.000012 -0.000015 -14.393927 3.754791 -25.982957 45.138128 -0.000004 -0.000001 -14.393890 -0.503439 8.489817 -13.003413 -0.000009 -0.000029 -0.000023 -0.000000 0.000006 0.000003 8.318075 -6.780910 -6.728100 -7.814400 7.789139 -0.125772 4.762113 -18.232950 12.109523 -7.740536 -1.797380 1.290434 1.748861 -18.426334 -12.690523 -4.198082 -0.500713 2.316556 2.893200 -10.324427 3.420887 16.394300 0.559583 -8.568856 0.000001 -0.000030 -0.000004 0.000001 0.000001 0.000006 -8.082922 -7.104629 -6.553650 5.239007 6.818301 1.025447 -3.033994 -18.950609 11.551147 8.721825 -0.565015 1.510827 0.163291 -19.936821 -10.210620 -10.291882 0.536460 -1.940179 -0.793676 -9.967944 0.101742 1.277762 -0.075562 1.222575 -0.000023 -0.000005 -0.000054 -0.000000 -0.000001 -0.000002 -0.000020 4.185483 5.729190 -13.624109 6.352970 0.820543 2.125752 5.862284 7.100493 8.170130 7.382163 -14.792351 -4.381103 5.689890 1.801936 -5.821604 15.593916 2.952559 -9.753146 2.579704 15.562079 0.000006 -0.000001 0.000006 -0.000023 -0.000005 -0.000054 0.000000 0.000001 0.000000 
-0.963465 56.997505 -196.337280 -9.902259 -14.719730 -1.405148 -0.000001 -0.000016 -0.000044 1.530455 -0.274558 -10.168204 3.999971 -0.000014 -0.000026 2.063550 -0.895720 8.286792 4.002687 -11.084220 10.770065 -8.972706 3.522230 -7.267415 2.147813 -15.161015 -8.035263 -20.164534 -9.963881 -2.067673 -2.240235 -20.029110 -9.040023 11.266610 -18.055877 1.638557 0.706241 -5.721218 1.834940 13.822726 0.152536 -4.309059 -0.000001 -0.000016 -0.000044 5.433331 -0.433298 -4.545975 -3.999981 -0.000012 -0.000030 5.476297 0.407680 3.432954 -4.614823 -11.686037 9.889507 2.464318 -0.444767 9.642239 -0.160710 -16.404409 -5.491791 6.965796 0.723657 -0.393685 2.412014 -21.935701 1.190881 2.460748 5.792712 -8.326763 -0.535008 -3.351730 3.806516 -11.906178 -0.890402 -2.752367 -0.000001 -0.000016 -0.000044 0.000002 0.000000 0.000000 -0.000000 0.000000 -3.827229 8.691568 -2.517048 1.980983 0.000002 0.000001 -16.939272 8.140683 13.170353 -41.987256 -0.000004 -0.000008 -14.393921 3.960421 -26.205899 45.863016 -0.000008 -0.000003 -14.393925 -0.399878 8.584184 -13.190465 -0.000014 0.000006 -0.000080 -0.000003 -0.000009 -0.000004 8.318103 -6.780911 -6.728122 -7.782423 7.739047 -0.125302 4.762103 -18.232914 12.109530 -7.737979 -1.796763 1.290050 1.748844 -18.426296 -12.690537 -4.306741 -0.533352 2.306481 2.893236 -10.324370 3.420892 16.410522 0.558913 -8.577345 -0.000011 0.000003 -0.000072 0.000002 0.000006 0.000018 -8.082917 -7.104609 -6.553648 5.299234 6.755815 1.055727 -3.033996 -18.950613 11.551157 8.686014 -0.563169 1.504468 0.163290 -19.936798 -10.210558 -10.219963 0.534746 -1.928761 -0.793683 -9.967962 0.101697 1.242040 -0.073839 1.188380 -0.000001 -0.000016 -0.000044 0.000010 0.000004 0.000000 0.000004 4.185554 5.729259 -13.716283 6.338785 0.872270 2.125758 5.862315 7.100410 8.316013 7.462298 -15.065895 -4.381109 5.689933 1.801977 -5.719635 15.828530 2.990547 -9.753131 2.579665 15.562068 0.000003 -0.000005 -0.000002 -0.000001 -0.000016 -0.000044 0.000001 0.000002 -0.000000 
-0.973680 56.982483 -196.301605 -10.030170 -14.886305 -1.448334 -0.000027 -0.000015 -0.000001 1.439759 -0.257464 -10.136655 3.999987 0.000014 -0.000010 1.944201 -0.864925 8.177084 4.002679 -11.084248 10.770079 -8.643921 3.291202 -7.304498 2.147810 -15.161016 -8.035205 -20.067459 -9.582162 -1.824483 -2.240279 -20.029089 -9.040053 11.721423 -18.088972 1.822001 0.706209 -5.721229 1.834900 13.563681 0.159271 -4.228337 -0.000027 -0.000015 -0.000001 5.476595 -0.449168 -4.674451 -4.000014 -0.000001 -0.000013 5.517593 0.460513 3.545655 -4.614814 -11.686044 9.889539 2.498377 -0.330812 9.665968 -0.160749 -16.404400 -5.491782 6.998393 0.726931 -0.395732 2.412025 -21.935680 1.190980 2.483611 5.788576 -8.380972 -0.535002 -3.351760 3.806484 -11.947478 -0.892483 -2.762182 -0.000027 -0.000015 -0.000001 0.000003 0.000010 0.000000 -0.000024 0.000015 -3.827240 8.814009 -2.483911 1.978514 -0.000004 -0.000005 -16.939190 8.253544 13.430160 -42.295615 -0.000009 -0.000015 -14.393866 4.075080 -26.315457 46.073782 -0.000004 -0.000004 -14.393864 -0.380375 8.622739 -13.130870 0.000035 -0.000014 0.000057 -0.000002 -0.000014 0.000008 8.318048 -6.780913 -6.728096 -7.761705 7.709198 -0.136583 4.762118 -18.232946 12.109597 -7.725971 -1.793836 1.288234 1.748861 -18.426342 -12.690494 -4.398268 -0.557611 2.310745 2.893188 -10.324415 3.420888 16.405547 0.559119 -8.574741 0.000023 -0.000006 0.000046 0.000010 0.000009 -0.000003 -8.082961 -7.104616 -6.553693 5.349828 6.708068 1.085840 -3.034000 -18.950605 11.551231 8.670631 -0.562373 1.501731 0.163305 -19.936769 -10.210626 -10.196392 0.542397 -2.006638 -0.793685 -9.967962 0.101782 1.223819 -0.072928 1.170961 -0.000027 -0.000015 -0.000001 0.000010 0.000005 -0.000002 -0.000006 4.185570 5.729157 -13.827126 6.316673 0.937410 2.125796 5.862311 7.100450 8.517850 7.556060 -15.269052 -4.381099 5.689938 1.801953 -5.738353 16.078619 3.056376 -9.753153 2.579655 15.562099 0.000011 -0.000004 0.000002 -0.000027 -0.000015 -0.000001 0.000003 0.000008 0.000000 
